<svg xmlns="http://www.w3.org/2000/svg" width="256" height="249" viewBox="0 0 256 249" xml:space="preserve" fill="#87ceeb"><path d="m47.522 170.287 11.172 76.681h138.612l11.172-76.681zM128 215.249c-5.748 0-10.407-3.063-10.407-6.84s4.659-6.84 10.407-6.84 10.407 3.062 10.407 6.84-4.659 6.84-10.407 6.84m105.315 17.805h-26.028l10.292-70.639H38.421l10.292 70.639H22.685c-14.848 0-24.85-15.195-18.978-28.834l36.809-85.489a45.26 45.26 0 0 1 41.571-27.362h14.486l22.885 34.061 4.665-22.254-7.809-11.807h23.491l-7.81 11.807 4.655 22.098 22.78-33.905h14.486a45.26 45.26 0 0 1 41.571 27.362l36.808 85.489c5.87 13.638-4.131 28.834-18.98 28.834M128 2.033c22.496 0 40.733 18.237 40.733 40.733S150.496 83.498 128 83.498 87.267 65.261 87.267 42.765 105.504 2.033 128 2.033"/></svg>